{"title":"Resident Evil (2002) 1080p BluRay {DD 5.1 Triple Audio} {6Ch.} [","uid":9817320,"size":2291728263,"categoryP":"video","categoryS":"hd___movies","magnet":"?xt=urn:btih:72a154025323574c84fa878f48ea957a03b9ec3e&amp;dn=Resident+Evil+%282002%29+1080p+BluRay+%7BDD+5.1+Triple+Audio%7D+%7B6Ch.%7D+%5B&amp;tr=udp%3A%2F%2Ftracker.openbittorrent.com%3A80&amp;tr=udp%3A%2F%2Fopen.demonii.com%3A1337&amp;tr=udp%3A%2F%2Ftracker.coppersurfer.tk%3A6969&amp;tr=udp%3A%2F%2Fexodus.desync.com%3A6969","seeders":1,"leechers":2,"uploader":"SaNRiM","files":-1,"time":1395635888,"description":"Storyline\nA virus has escaped in a secret facility called &quot;The Hive,&quot; turning the staff into hungry zombies and releasing the mutated Lab &quot;Animals&quot; that they were studying. The complex computer shuts down the base to prevent infection. The parent corporation sends in an elite military unit, where they meet Alice, who is suffering from amnesia due to exposure to nerve gas. The military team must shut down the computer and get out, fighting their way past zombies, mutants, and the computer itself, before the virus escapes and infects the rest of the world. Alice must also come to terms with her slowly-returning memories.\n\n\nTorrent Info\n\nGeneral\n\nUnique ID : 221173111208189903917966327822565097632 (0xA664644B7DE96F818E76F893E525C0A0)\nComplete name : Resident Evil (2002) 1080p BluRay {DD 5.1 Triple Audio} {6Ch.} ~SaNRiM~.mkv\nFormat : Matroska\nFormat version : Version 4 / Version 2\nFile size : 2.12 GiB\nDuration : 1h 40mn\nOverall bit rate : 3 024 Kbps\nEncoded date : UTC 2014-03-23 19:36:14\nWriting library : libebml v1.3.0 + libmatroska v1.4.1\n\n\nVideo\n\nID : 1\nFormat : AVC\nFormat/Info : Advanced Video Codec\nFormat profile : &lt;a class=&quot;__cf_email__&quot; href=&quot;/cdn-cgi/l/email-protection&quot; data-cfemail=&quot;f8b0919f90b8b4ccd6c8&quot;&gt;[email&amp;#160;protected]&lt;/a&gt;&lt;script cf-hash='f9e31' type=&quot;text/javascript&quot;&gt;\n/* &lt;![CDATA[ */!function(){try{var t=&quot;currentScript&quot;in document?document.currentScript:function(){for(var t=document.getElementsByTagName(&quot;script&quot;),e=t.length;e--;)if(t[e].getAttribute(&quot;cf-hash&quot;))return t[e]}();if(t&amp;&amp;t.previousSibling){var e,r,n,i,c=t.previousSibling,a=c.getAttribute(&quot;data-cfemail&quot;);if(a){for(e=&quot;&quot;,r=parseInt(a.substr(0,2),16),n=2;a.length-n;n+=2)i=parseInt(a.substr(n,2),16)^r,e+=String.fromCharCode(i);e=document.createTextNode(e),c.parentNode.replaceChild(e,c)}}}catch(u){}}();/* ]]&gt; */&lt;/script&gt;\nFormat settings, CABAC : Yes\nFormat settings, ReFrames : 4 frames\nCodec ID : V_MPEG4/ISO/AVC\nDuration : 1h 40mn\nBit rate : 1 663 Kbps\nWidth : 1 920 pixels\nHeight : 1 040 pixels\nDisplay aspect ratio : 1.85:1\nFrame rate mode : Constant\nFrame rate : 23.976 fps\nColor space : YUV\nChroma subsampling : 4:2:0\nBit depth : 8 bits\nScan type : Progressive\nBits/(Pixel*Frame) : 0.035\nStream size : 1.14 GiB (54%)\nTitle : ~SaNRiM~\nWriting library : x264 core 129 r2230 1cffe9f\nLanguage : English\nDefault : Yes\nForced : No\n\n\nAudio #1\n\nID : 2\nFormat : AC-3\nFormat/Info : Audio Coding 3\nMode extension : CM (complete main)\nFormat settings, Endianness : Big\nCodec ID : A_AC3\nDuration : 1h 40mn\nBit rate mode : Constant\nBit rate : 448 Kbps\nChannel(s) : 6 channels\nChannel positions : Front: L C R, Side: L R, LFE\nSampling rate : 48.0 KHz\nBit depth : 16 bits\nCompression mode : Lossy\nDelay relative to video : 2s 300ms\nStream size : 322 MiB (15%)\nTitle : ~SaNRiM~\nLanguage : Hindi\nDefault : Yes\nForced : No\n\n\nAudio #2\n\nID : 3\nFormat : AC-3\nFormat/Info : Audio Coding 3\nMode extension : CM (complete main)\nFormat settings, Endianness : Big\nCodec ID : A_AC3\nDuration : 1h 40mn\nBit rate mode : Constant\nBit rate : 448 Kbps\nChannel(s) : 6 channels\nChannel positions : Front: L C R, Side: L R, LFE\nSampling rate : 48.0 KHz\nBit depth : 16 bits\nCompression mode : Lossy\nStream size : 322 MiB (15%)\nTitle : ~SaNRiM~\nLanguage : Tamil\nDefault : No\nForced : No\n\n\nAudio #3\n\nID : 4\nFormat : AC-3\nFormat/Info : Audio Coding 3\nMode extension : CM (complete main)\nFormat settings, Endianness : Big\nCodec ID : A_AC3\nDuration : 1h 40mn\nBit rate mode : Constant\nBit rate : 448 Kbps\nChannel(s) : 6 channels\nChannel positions : Front: L C R, Side: L R, LFE\nSampling rate : 48.0 KHz\nBit depth : 16 bits\nCompression mode : Lossy\nStream size : 322 MiB (15%)\nTitle : ~SaNRiM~\nLanguage : English\nDefault : No\nForced : No\n\n\nText\n\nID : 5\nFormat : PGS\nMuxing mode : zlib\nCodec ID : S_HDMV/PGS\nCodec ID/Info : The same subtitle format used on BDs/HD-DVDs\nTitle : ~SaNRiM~\nLanguage : English\nDefault : Yes\nForced : No\n\n\nScreens\n\n &lt;a href=&quot;\nhttp://someimage.com/8Ll3M8t&quot; rel=&quot;nofollow&quot; target=&quot;_NEW&quot;&gt;\nhttp://someimage.com/8Ll3M8t&lt;/a&gt; &lt;a href=&quot;\nhttp://someimage.com/CpHWYFd&quot; rel=&quot;nofollow&quot; target=&quot;_NEW&quot;&gt;\nhttp://someimage.com/CpHWYFd&lt;/a&gt; &lt;a href=&quot;\nhttp://someimage.com/hf1NX4x&quot; rel=&quot;nofollow&quot; target=&quot;_NEW&quot;&gt;\nhttp://someimage.com/hf1NX4x&lt;/a&gt; &lt;a href=&quot;\nhttp://someimage.com/4kQp6wt&quot; rel=&quot;nofollow&quot; target=&quot;_NEW&quot;&gt;\nhttp://someimage.com/4kQp6wt&lt;/a&gt; &lt;a href=&quot;\nhttp://someimage.com/CRgoHOG&quot; rel=&quot;nofollow&quot; target=&quot;_NEW&quot;&gt;\nhttp://someimage.com/CRgoHOG&lt;/a&gt; &lt;a href=&quot;\nhttp://someimage.com/bUhYapJ&quot; rel=&quot;nofollow&quot; target=&quot;_NEW&quot;&gt;\nhttp://someimage.com/bUhYapJ&lt;/a&gt; &lt;a href=&quot;\nhttp://someimage.com/MrTZR5O&quot; rel=&quot;nofollow&quot; target=&quot;_NEW&quot;&gt;\nhttp://someimage.com/MrTZR5O&lt;/a&gt; &lt;a href=&quot;\nhttp://someimage.com/5V8I3qs&quot; rel=&quot;nofollow&quot; target=&quot;_NEW&quot;&gt;\nhttp://someimage.com/5V8I3qs&lt;/a&gt; &lt;a href=&quot;\nhttp://someimage.com/MTfgCkK&quot; rel=&quot;nofollow&quot; target=&quot;_NEW&quot;&gt;\nhttp://someimage.com/MTfgCkK&lt;/a&gt; &lt;a href=&quot;\nhttp://someimage.com/Sy4MNNy&quot; rel=&quot;nofollow&quot; target=&quot;_NEW&quot;&gt;\nhttp://someimage.com/Sy4MNNy&lt;/a&gt; &lt;a href=&quot;\nhttp://someimage.com/ucQDCoe&quot; rel=&quot;nofollow&quot; target=&quot;_NEW&quot;&gt;\nhttp://someimage.com/ucQDCoe&lt;/a&gt; &lt;a href=&quot;\nhttp://someimage.com/hneSiFe&quot; rel=&quot;nofollow&quot; target=&quot;_NEW&quot;&gt;\nhttp://someimage.com/hneSiFe&lt;/a&gt; &lt;a href=&quot;\nhttp://someimage.com/Coj7Dcq&quot; rel=&quot;nofollow&quot; target=&quot;_NEW&quot;&gt;\nhttp://someimage.com/Coj7Dcq&lt;/a&gt; &lt;a href=&quot;\nhttp://someimage.com/QAShQcS&quot; rel=&quot;nofollow&quot; target=&quot;_NEW&quot;&gt;\nhttp://someimage.com/QAShQcS&lt;/a&gt; &lt;a href=&quot;\nhttp://someimage.com/kjYArBm&quot; rel=&quot;nofollow&quot; target=&quot;_NEW&quot;&gt;\nhttp://someimage.com/kjYArBm&lt;/a&gt; &lt;a href=&quot;\nhttp://someimage.com/wsnHbzB&quot; rel=&quot;nofollow&quot; target=&quot;_NEW&quot;&gt;\nhttp://someimage.com/wsnHbzB&lt;/a&gt; &lt;a href=&quot;\nhttp://someimage.com/zHHEx4K&quot; rel=&quot;nofollow&quot; target=&quot;_NEW&quot;&gt;\nhttp://someimage.com/zHHEx4K&lt;/a&gt; &lt;a href=&quot;\nhttp://someimage.com/I8GkQLz&quot; rel=&quot;nofollow&quot; target=&quot;_NEW&quot;&gt;\nhttp://someimage.com/I8GkQLz&lt;/a&gt; &lt;a href=&quot;\nhttp://someimage.com/swNqCgu&quot; rel=&quot;nofollow&quot; target=&quot;_NEW&quot;&gt;\nhttp://someimage.com/swNqCgu&lt;/a&gt; &lt;a href=&quot;\nhttp://someimage.com/gB74dwn&quot; rel=&quot;nofollow&quot; target=&quot;_NEW&quot;&gt;\nhttp://someimage.com/gB74dwn&lt;/a&gt;\n\n\n\n                   A BIG THANKS TO VDA FOR AUDIO\n\n\n\n                  If you like my work please comment\n                          Any request? Just PM me\n                       Please seed long after download\n                         Thank you &amp; enjoy the best\n                                 ~SaNRiM~\t","torrent":{"xt":"urn:btih:72a154025323574c84fa878f48ea957a03b9ec3e","amp;dn":"Resident+Evil+%282002%29+1080p+BluRay+%7BDD+5.1+Triple+Audio%7D+%7B6Ch.%7D+%5B","amp;tr":["udp%3A%2F%2Ftracker.openbittorrent.com%3A80","udp%3A%2F%2Fopen.demonii.com%3A1337","udp%3A%2F%2Ftracker.coppersurfer.tk%3A6969","udp%3A%2F%2Fexodus.desync.com%3A6969"],"infoHash":"72a154025323574c84fa878f48ea957a03b9ec3e","infoHashBuffer":{"type":"Buffer","data":[114,161,84,2,83,35,87,76,132,250,135,143,72,234,149,122,3,185,236,62]},"announce":[],"urlList":[]}}